<svg xmlns="http://www.w3.org/2000/svg" viewBox="0 0 23 30.9125" x="0px" y="0px"><title>Asset 1</title><g data-name="Layer 2"><g data-name="Layer 1"><path d="M15,24.73a1.86,1.86,0,0,1-.33,0l-1-.23a1.52,1.52,0,0,1-1.12-1.82l1.42-6A4.88,4.88,0,0,0,11,21.05a4.45,4.45,0,0,0,.19,1.27l.2.68-.71,0C4.69,22.58,0,18,0,12.5,0,6.71,5.16,2,11.5,2A12.38,12.38,0,0,1,17,3.25a3.18,3.18,0,0,0,.16-.32,4.15,4.15,0,0,0,.24-.73A3.88,3.88,0,0,0,17.41.61L17.32.1,17.83,0a4.38,4.38,0,0,1,2.32.33h0a4.51,4.51,0,0,1,2.41,5.72l0,.1a4.44,4.44,0,0,1-.87,1.37,9.69,9.69,0,0,1-.2,10.19l-.34.54-.44-.46a5.65,5.65,0,0,0-2.53-1.52l-1.71,7.26A1.52,1.52,0,0,1,15,24.73ZM15.14,16l-1.63,6.9a.5.5,0,0,0,.37.61l1,.22a.51.51,0,0,0,.6-.38L18.67,9.72a.48.48,0,0,0-.38-.61l-1-.23h0a.49.49,0,0,0-.59.35h0ZM11.5,3C5.71,3,1,7.26,1,12.5c0,4.76,3.93,8.77,9.07,9.4a5,5,0,0,1-.07-.85,6,6,0,0,1,4.23-5.58L15.75,9a1.49,1.49,0,0,1,.33-.65A2.23,2.23,0,0,1,15,6.66v0a1.55,1.55,0,0,1,0-.22,2.47,2.47,0,0,1,.9-1.9L16,4.39l.32-.32A11.45,11.45,0,0,0,11.5,3Zm6.87,12.34a6.67,6.67,0,0,1,2.55,1.35,8.7,8.7,0,0,0,0-8.47,4.31,4.31,0,0,1-1.4.63,1.5,1.5,0,0,1,.18,1,.43.43,0,0,0,0,0ZM18,8a3.5,3.5,0,0,0,2.71-.87L20.76,7a3.34,3.34,0,0,0,.85-1.28l.05-.11A3.5,3.5,0,0,0,18.46,1a5.3,5.3,0,0,1-.13,1.43,6.33,6.33,0,0,1-.3.9c-.06.13-.13.26-.2.39h0l-.09.14-.22.33-.07.1a5.15,5.15,0,0,1-.91,1h0l-.14.12a1.48,1.48,0,0,0-.42,1v.13a1.25,1.25,0,0,0,.65,1h0l0,0a3.35,3.35,0,0,0,.86.33h0l.32.07H18ZM6.5,18A2.5,2.5,0,1,1,9,15.5,2.5,2.5,0,0,1,6.5,18Zm0-4A1.5,1.5,0,1,0,8,15.5,1.5,1.5,0,0,0,6.5,14Zm-1-2a2.54,2.54,0,0,1-1.25-.33,2.52,2.52,0,0,1-.92-3.42h0A2.49,2.49,0,0,1,4.85,7.09a2.44,2.44,0,0,1,1.9.25A2.5,2.5,0,0,1,5.5,12Zm0-4a1.74,1.74,0,0,0-.39.05,1.52,1.52,0,0,0-.91.7h0a1.51,1.51,0,0,0-.15,1.14,1.5,1.5,0,0,0,2.75.36A1.51,1.51,0,0,0,7,9.11a1.48,1.48,0,0,0-.7-.91A1.53,1.53,0,0,0,5.5,8Zm5.26,1.27a2.39,2.39,0,0,1-1.24-.34A2.5,2.5,0,0,1,8.6,5.52h0a2.5,2.5,0,0,1,4.58.6,2.5,2.5,0,0,1-1.76,3.06A2.5,2.5,0,0,1,10.76,9.27ZM9.47,6a1.5,1.5,0,0,0,1.69,2.2,1.5,1.5,0,0,0,1.06-1.84A1.5,1.5,0,0,0,9.47,6Z"/></g></g><text x="0" y="39.730000000000004" fill="#000000" font-size="5px" font-weight="bold" font-family="'Helvetica Neue', Helvetica, Arial-Unicode, Arial, Sans-serif">Created by Aneesh KR</text><text x="0" y="44.730000000000004" fill="#000000" font-size="5px" font-weight="bold" font-family="'Helvetica Neue', Helvetica, Arial-Unicode, Arial, Sans-serif">from the Noun Project</text></svg>